<mxfile host="Electron" agent="Mozilla/5.0 (Windows NT 10.0; Win64; x64) AppleWebKit/537.36 (KHTML, like Gecko) draw.io/28.0.6 Chrome/138.0.7204.100 Electron/37.2.3 Safari/537.36" version="28.0.6">
  <diagram name="Page-1" id="jW2TgOekQL_pV2IrW2gJ">
    <mxGraphModel dx="830" dy="582" grid="1" gridSize="10" guides="1" tooltips="1" connect="1" arrows="1" fold="1" page="1" pageScale="1" pageWidth="850" pageHeight="1100" math="0" shadow="0">
      <root>
        <mxCell id="0" />
        <mxCell id="1" parent="0" />
        <mxCell id="g126ZhnS95503PX3KaWC-1" value="&lt;font style=&quot;font-size: 24px;&quot;&gt;&lt;b&gt;Data Flow Digram&lt;/b&gt;&lt;/font&gt;" style="text;html=1;align=center;verticalAlign=middle;resizable=0;points=[];autosize=1;strokeColor=none;fillColor=none;" vertex="1" parent="1">
          <mxGeometry x="260" y="40" width="230" height="40" as="geometry" />
        </mxCell>
        <mxCell id="g126ZhnS95503PX3KaWC-2" value="" style="rounded=0;whiteSpace=wrap;html=1;fillColor=none;dashed=1;" vertex="1" parent="1">
          <mxGeometry x="130" y="160" width="140" height="360" as="geometry" />
        </mxCell>
        <mxCell id="g126ZhnS95503PX3KaWC-4" value="" style="rounded=1;whiteSpace=wrap;html=1;fillColor=#ffe6cc;fillStyle=hatch;strokeColor=#d79b00;" vertex="1" parent="1">
          <mxGeometry x="348" y="190" width="155" height="330" as="geometry" />
        </mxCell>
        <mxCell id="g126ZhnS95503PX3KaWC-5" value="&lt;font style=&quot;font-size: 18px;&quot;&gt;Sources&lt;/font&gt;" style="rounded=1;whiteSpace=wrap;html=1;fillColor=default;strokeColor=none;" vertex="1" parent="1">
          <mxGeometry x="160" y="150" width="80" height="30" as="geometry" />
        </mxCell>
        <mxCell id="g126ZhnS95503PX3KaWC-7" value="Bronze Layer" style="rounded=1;whiteSpace=wrap;html=1;fillColor=#ffe6cc;strokeColor=#d79b00;fillStyle=auto;" vertex="1" parent="1">
          <mxGeometry x="353" y="145" width="140" height="40" as="geometry" />
        </mxCell>
        <mxCell id="g126ZhnS95503PX3KaWC-8" value="crm_cust_info" style="rounded=1;whiteSpace=wrap;html=1;fillColor=#ffe6cc;strokeColor=#d79b00;fillStyle=auto;" vertex="1" parent="1">
          <mxGeometry x="355.5" y="210" width="134.5" height="30" as="geometry" />
        </mxCell>
        <mxCell id="g126ZhnS95503PX3KaWC-24" style="edgeStyle=orthogonalEdgeStyle;rounded=0;orthogonalLoop=1;jettySize=auto;html=1;entryX=0;entryY=0.5;entryDx=0;entryDy=0;" edge="1" parent="1" source="g126ZhnS95503PX3KaWC-11" target="g126ZhnS95503PX3KaWC-16">
          <mxGeometry relative="1" as="geometry" />
        </mxCell>
        <mxCell id="g126ZhnS95503PX3KaWC-26" style="edgeStyle=orthogonalEdgeStyle;rounded=0;orthogonalLoop=1;jettySize=auto;html=1;entryX=0;entryY=0.5;entryDx=0;entryDy=0;" edge="1" parent="1" source="g126ZhnS95503PX3KaWC-11" target="g126ZhnS95503PX3KaWC-17">
          <mxGeometry relative="1" as="geometry" />
        </mxCell>
        <mxCell id="g126ZhnS95503PX3KaWC-11" value="CRM" style="image;aspect=fixed;html=1;points=[];align=center;fontSize=12;image=img/lib/azure2/general/Folder_Blank.svg;" vertex="1" parent="1">
          <mxGeometry x="165.5" y="230" width="69" height="56.00000000000001" as="geometry" />
        </mxCell>
        <mxCell id="g126ZhnS95503PX3KaWC-27" style="edgeStyle=orthogonalEdgeStyle;rounded=0;orthogonalLoop=1;jettySize=auto;html=1;" edge="1" parent="1" source="g126ZhnS95503PX3KaWC-12" target="g126ZhnS95503PX3KaWC-18">
          <mxGeometry relative="1" as="geometry" />
        </mxCell>
        <mxCell id="g126ZhnS95503PX3KaWC-28" style="edgeStyle=orthogonalEdgeStyle;rounded=0;orthogonalLoop=1;jettySize=auto;html=1;" edge="1" parent="1" source="g126ZhnS95503PX3KaWC-12" target="g126ZhnS95503PX3KaWC-19">
          <mxGeometry relative="1" as="geometry" />
        </mxCell>
        <mxCell id="g126ZhnS95503PX3KaWC-29" style="edgeStyle=orthogonalEdgeStyle;rounded=0;orthogonalLoop=1;jettySize=auto;html=1;entryX=0;entryY=0.5;entryDx=0;entryDy=0;" edge="1" parent="1" source="g126ZhnS95503PX3KaWC-12" target="g126ZhnS95503PX3KaWC-20">
          <mxGeometry relative="1" as="geometry" />
        </mxCell>
        <mxCell id="g126ZhnS95503PX3KaWC-12" value="ERP" style="image;aspect=fixed;html=1;points=[];align=center;fontSize=12;image=img/lib/azure2/general/Folder_Blank.svg;" vertex="1" parent="1">
          <mxGeometry x="165.5" y="370" width="69" height="56.00000000000001" as="geometry" />
        </mxCell>
        <mxCell id="g126ZhnS95503PX3KaWC-16" value="crm_prd_info" style="rounded=1;whiteSpace=wrap;html=1;fillColor=#ffe6cc;strokeColor=#d79b00;fillStyle=auto;" vertex="1" parent="1">
          <mxGeometry x="358" y="256" width="134.5" height="30" as="geometry" />
        </mxCell>
        <mxCell id="g126ZhnS95503PX3KaWC-17" value="crm_sales_details" style="rounded=1;whiteSpace=wrap;html=1;fillColor=#ffe6cc;strokeColor=#d79b00;fillStyle=auto;" vertex="1" parent="1">
          <mxGeometry x="358" y="300" width="134.5" height="30" as="geometry" />
        </mxCell>
        <mxCell id="g126ZhnS95503PX3KaWC-18" value="erp_cust_az12" style="rounded=1;whiteSpace=wrap;html=1;fillColor=#ffe6cc;strokeColor=#d79b00;fillStyle=auto;" vertex="1" parent="1">
          <mxGeometry x="357" y="360" width="134.5" height="30" as="geometry" />
        </mxCell>
        <mxCell id="g126ZhnS95503PX3KaWC-19" value="erp_loc_a101" style="rounded=1;whiteSpace=wrap;html=1;fillColor=#ffe6cc;strokeColor=#d79b00;fillStyle=auto;" vertex="1" parent="1">
          <mxGeometry x="359.5" y="406" width="134.5" height="30" as="geometry" />
        </mxCell>
        <mxCell id="g126ZhnS95503PX3KaWC-20" value="erp_px_cat_g1v2" style="rounded=1;whiteSpace=wrap;html=1;fillColor=#ffe6cc;strokeColor=#d79b00;fillStyle=auto;" vertex="1" parent="1">
          <mxGeometry x="359.5" y="450" width="134.5" height="30" as="geometry" />
        </mxCell>
        <mxCell id="g126ZhnS95503PX3KaWC-23" style="edgeStyle=orthogonalEdgeStyle;rounded=0;orthogonalLoop=1;jettySize=auto;html=1;entryX=0;entryY=0.5;entryDx=0;entryDy=0;" edge="1" parent="1" source="g126ZhnS95503PX3KaWC-11" target="g126ZhnS95503PX3KaWC-8">
          <mxGeometry relative="1" as="geometry" />
        </mxCell>
      </root>
    </mxGraphModel>
  </diagram>
</mxfile>
